# xmcd CD database file
#
# Track frame offsets:
#	150
#	17141
#	37449
#	51851
#	66906
#	80242
#	94928
#	110808
#	122178
#	136562
#	148796
#	162118
#	177046
#	191287
#	204066
#	218047
#	230174
#	246865
#	258433
#
# Disc length: 3629 seconds
#
# Revision: 1
# Processed by: cddbd v1.5.2PL0 Copyright (c) Steve Scherf et al.
# Submitted via: CDex 2.22
#
DISCID=190e2b13
DTITLE=Various Artist - Vintage Jazz
DYEAR=2006
DGENRE=Jazz
TTITLE0=Sophisticated Lady
TTITLE1=I'm getting sentimental Over You
TTITLE2=Thanks for the Memory
TTITLE3=I got rhythm
TTITLE4=That Ole Devil Called Love
TTITLE5=Black Bottom Stomp
TTITLE6=Mack The Knife
TTITLE7=Mood Indigo
TTITLE8=Indian Summer
TTITLE9=Honeysuckle ROse
TTITLE10=Oh Lady Be Good
TTITLE11=Lullaby of Birdland
TTITLE12=Basin Street Blues
TTITLE13=Swinging on the TeaGarden Gate
TTITLE14=Jumpin at the woodside
TTITLE15=Muskrat Ramble
TTITLE16=The Entertainer
TTITLE17=Ciribiribin
TTITLE18=Body and Soul
EXTD=YEAR: 2006
EXTT0=
EXTT1=
EXTT2=
EXTT3=
EXTT4=
EXTT5=
EXTT6=
EXTT7=
EXTT8=
EXTT9=
EXTT10=
EXTT11=
EXTT12=
EXTT13=
EXTT14=
EXTT15=
EXTT16=
EXTT17=
EXTT18=
PLAYORDER=
